<?xml version="1.0" ?><!DOCTYPE svg  PUBLIC '-//W3C//DTD SVG 1.1//EN'  'http://www.w3.org/Graphics/SVG/1.1/DTD/svg11.dtd'><svg enable-background="new 0 0 24 24" height="24px" id="Layer_1" version="1.1" viewBox="0 0 24 24" width="24px" xml:space="preserve" xmlns="http://www.w3.org/2000/svg" xmlns:xlink="http://www.w3.org/1999/xlink"><g><path d="M23,0H1C0.4,0,0,0.4,0,1v22c0,0.6,0.4,1,1,1h22c0.6,0,1-0.4,1-1V1C24,0.4,23.6,0,23,0z M22,22H2V2h20V22z"/><rect height="13" width="2" x="4" y="4"/><rect height="13" width="1" x="7" y="4"/><rect height="13" width="1" x="9" y="4"/><rect height="13" width="1" x="14" y="4"/><rect height="13" width="1" x="16" y="4"/><rect height="13" width="2" x="18" y="4"/><rect height="13" width="2" x="11" y="4"/><rect height="2" width="2" x="4" y="18"/><rect height="2" width="2" x="14" y="18"/><rect height="2" width="1" x="7" y="18"/><rect height="2" width="1" x="17" y="18"/><rect height="2" width="1" x="19" y="18"/><rect height="2" width="4" x="9" y="18"/></g></svg>